<svg width="31" height="32" viewBox="0 0 31 32" fill="none" xmlns="http://www.w3.org/2000/svg">
<path fill-rule="evenodd" clip-rule="evenodd" d="M25.0755 18.8581C25.466 18.4676 26.0992 18.4676 26.4897 18.8581L29.0298 21.3981C30.0957 22.4446 30.6963 23.8756 30.6963 25.3695C30.6963 26.8618 30.097 28.2914 29.0332 29.3375C27.9871 30.4013 26.5575 31.0006 25.0652 31.0006C23.5714 31.0006 22.1403 30.4 21.0938 29.3341L17.2494 25.4897C16.8589 25.0992 16.8589 24.466 17.2494 24.0755C17.64 23.6849 18.2731 23.6849 18.6636 24.0755L22.5187 27.9305C23.1893 28.6149 24.1071 29.0006 25.0652 29.0006C26.0234 29.0006 26.9412 28.615 27.6118 27.9305L28.3261 28.6304L27.6263 27.9161C28.3107 27.2455 28.6963 26.3277 28.6963 25.3695C28.6963 24.4114 28.3107 23.4935 27.6263 22.8229L27.619 22.8158L25.0755 20.2723C24.685 19.8818 24.685 19.2486 25.0755 18.8581Z" fill="#258AFF"/>
<path fill-rule="evenodd" clip-rule="evenodd" d="M7.46672 8.16252C7.85725 7.772 8.49041 7.772 8.88093 8.16252L13.3483 12.6299C13.7389 13.0204 13.7389 13.6536 13.3483 14.0441C12.9578 14.4347 12.3246 14.4347 11.9341 14.0441L7.46672 9.57674C7.0762 9.18621 7.0762 8.55305 7.46672 8.16252Z" fill="#258AFF"/>
<path fill-rule="evenodd" clip-rule="evenodd" d="M4.72778 1.77116C5.11831 1.38064 5.75147 1.38064 6.142 1.77116L9.79417 5.42334C10.062 5.69117 10.1555 6.08734 10.0357 6.44667L9.1227 9.1858C9.02317 9.48441 8.78885 9.71872 8.49025 9.81826L5.75112 10.7313L5.43489 9.78262L4.72778 10.4897L1.07561 6.83755C0.685084 6.44703 0.685084 5.81386 1.07561 5.42334L4.72778 1.77116ZM5.70498 8.6385L7.38345 8.07901L7.94294 6.40054L5.43489 3.89248L3.19693 6.13045L5.70498 8.6385Z" fill="#258AFF"/>
<path fill-rule="evenodd" clip-rule="evenodd" d="M21.5309 0.359962C22.7047 0.200732 23.8999 0.365596 24.9871 0.836958C25.2912 0.96882 25.5102 1.24282 25.5718 1.56852C25.6335 1.89422 25.5297 2.22929 25.2948 2.46315L21.9896 5.7533L25.2606 9.00705L28.5702 5.71148C28.8108 5.47185 29.1566 5.37073 29.4885 5.44297C29.8203 5.5152 30.0928 5.75092 30.2121 6.0689C30.8018 7.64122 30.8563 9.3641 30.3673 10.9705C29.497 13.9648 27.0423 16.2328 23.9881 16.8638C23.9694 16.8676 23.9506 16.8709 23.9317 16.8737C22.7472 17.0484 21.5426 17.0037 20.3776 16.7439L9.41545 29.0678C8.45894 30.2355 7.04857 30.9391 5.53959 31.0003C4.02269 31.0619 2.55252 30.4685 1.50341 29.3711L2.22621 28.6801L1.50074 29.3683C0.484058 28.2967 -0.054964 26.8587 0.00672054 25.3828C0.0684051 23.9069 0.725531 22.519 1.82809 21.5359L1.83251 21.5319L1.83252 21.5319L14.1875 10.6463C14.022 10.0543 13.9408 9.44071 13.9474 8.82372C13.8564 4.4471 17.1715 0.748073 21.5309 0.359962ZM2.95045 27.9905C3.60263 28.6718 4.51606 29.0402 5.45849 29.002C6.4016 28.9637 7.28277 28.5219 7.87761 27.789C7.8871 27.7773 7.89685 27.7658 7.90686 27.7546L19.2886 14.9589C19.5456 14.67 19.9462 14.5551 20.3172 14.664C21.3859 14.9774 22.5093 15.0576 23.6114 14.8993C25.9286 14.4099 27.7888 12.6833 28.4483 10.407L28.4524 10.3932C28.6492 9.74916 28.7274 9.07968 28.6883 8.41635L25.9666 11.1265C25.5766 11.5149 24.946 11.5151 24.5558 11.1269L19.8666 6.46254C19.678 6.2749 19.5719 6.01982 19.5719 5.75375C19.5718 5.48768 19.6778 5.23256 19.8664 5.04485L22.6176 2.30612C22.3394 2.29286 22.0594 2.30545 21.7813 2.34435C21.7637 2.34681 21.746 2.34881 21.7283 2.35033C18.402 2.63604 15.8708 5.4582 15.9473 8.79587C15.9475 8.80798 15.9476 8.8201 15.9474 8.83221C15.9394 9.43152 16.0508 10.0264 16.2752 10.5822C16.4341 10.9756 16.3274 11.4264 16.009 11.7069L3.15912 23.0286C3.15842 23.0293 3.15772 23.0299 3.15702 23.0305C2.45963 23.6534 2.04402 24.532 2.00498 25.4663C1.96591 26.401 2.30701 27.3116 2.95045 27.9905Z" fill="#258AFF"/>
</svg>
