<svg width="31" height="27" viewBox="0 0 31 27" fill="none" xmlns="http://www.w3.org/2000/svg">
<path fill-rule="evenodd" clip-rule="evenodd" d="M18.1926 0.86678C20.1946 -0.289056 22.6613 -0.288918 24.6632 0.867143C26.6651 2.02317 27.8981 4.1594 27.8977 6.47104C27.8977 6.47112 27.8977 6.47119 27.8977 6.47127V9.20595L27.8977 9.20813C27.8931 11.312 26.8633 13.2675 25.1626 14.4643V15.1157C25.1634 15.2653 25.2548 15.3995 25.3938 15.4551L25.3949 15.4555L30.5111 17.5063C30.5114 17.5064 30.5118 17.5065 30.5121 17.5067M23.6631 2.5991C22.28 1.80039 20.5757 1.80029 19.1925 2.59885C18.7142 2.87498 18.1026 2.7111 17.8265 2.2328C17.5504 1.7545 17.7143 1.14291 18.1926 0.86678M23.6631 2.5991C25.0462 3.39781 25.898 4.87375 25.8977 6.47082L23.6631 2.5991ZM25.8977 6.47082V6.47104V6.47082ZM25.8977 6.47104V9.2048V6.47104ZM25.8977 9.2048C25.8938 10.7932 25.0427 12.2588 23.6649 13.0495C23.3542 13.2278 23.1626 13.5586 23.1626 13.9168V15.1174L23.1626 15.1201C23.1652 16.0859 23.7541 16.9532 24.6507 17.3119C24.6508 17.3119 24.6508 17.3119 24.6508 17.3119C24.6512 17.3121 24.6515 17.3122 24.6518 17.3123L29.768 19.3631L29.7691 19.3635C29.9086 19.4193 30.0001 19.5543 30.0002 19.7045V24.6154" fill="#258AFF"/>
<path fill-rule="evenodd" clip-rule="evenodd" d="M4.12088 7.96844C4.12088 4.4062 7.03976 1.53857 10.6154 1.53857C14.191 1.53857 17.1099 4.4062 17.1099 7.96844L17.1099 10.6856C17.1053 12.7807 16.0681 14.7231 14.3626 15.9106V16.55C14.3634 16.6885 14.4494 16.8215 14.5939 16.8786L19.734 18.9148C20.6319 19.2693 21.2301 20.1331 21.2308 21.104V25.6155C21.2308 26.1678 20.7831 26.6155 20.2308 26.6155H1C0.447715 26.6155 0 26.1678 0 25.6155V21.1046L3.57628e-06 21.102C0.00258625 20.1331 0.600198 19.2718 1.49616 18.9177C1.49637 18.9177 1.49596 18.9178 1.49616 18.9177L6.63689 16.8813C6.78198 16.824 6.86804 16.6901 6.86813 16.5511V15.9106C5.16265 14.7231 4.12551 12.7807 4.12088 10.6856L4.12088 10.6834V7.96844ZM10.6154 3.53857C8.12195 3.53857 6.12088 5.53302 6.12088 7.96844V10.6822C6.12471 12.2506 6.97511 13.7038 8.36144 14.49C8.67461 14.6676 8.86813 14.9998 8.86813 15.3598V16.5517C8.86751 17.5222 8.26973 18.3864 7.37242 18.7411M7.37135 18.7416L2.23123 20.7778C2.08672 20.8348 2.00074 20.9679 2 21.1064V24.6155H19.2308V21.1053C19.2307 20.9662 19.1446 20.8323 18.9995 20.775L13.8594 18.7388C13.8592 18.7387 13.8597 18.7389 13.8594 18.7388C12.9635 18.3848 12.3652 17.5232 12.3626 16.5544L12.3626 16.5517V15.3598C12.3626 14.9998 12.5562 14.6676 12.8693 14.49C14.2556 13.7038 15.106 12.2507 15.1099 10.6824V7.96844C15.1099 5.53302 13.1088 3.53857 10.6154 3.53857" fill="#258AFF"/>
</svg>
